<svg xmlns="http://www.w3.org/2000/svg" width="22" height="22"><path d="M10.989 0C4.917 0 0 4.928 0 11s4.917 11 10.989 11C17.072 22 22 17.072 22 11S17.072 0 10.989 0zM19 7h-3.406A17.3 17.3 0 0014 3a9.22 9.22 0 015 4zm-8-5a14.021 14.021 0 012 4H9a14.021 14.021 0 012-4zM2.286 13A7.545 7.545 0 012 11c0-.69.11-1.36.286-2H6c-.088.66-.154 1.32-.154 2 0 .68.066 1.34.154 2H2.286zM3 15h3.406A17.3 17.3 0 008 19a9.171 9.171 0 01-5-4zm3.406-8H3a9.171 9.171 0 015-4 17.3 17.3 0 00-1.594 4zM11 19a14.021 14.021 0 01-2-4h4a14.021 14.021 0 01-2 4zm2.808-6H8.192C8.084 12.34 8 11.68 8 11c0-.68.084-1.35.192-2h5.616c.108.65.192 1.32.192 2 0 .68-.084 1.34-.192 2zM14 19a17.3 17.3 0 001.594-4H19a9.22 9.22 0 01-5 4zm2-6c.088-.66.154-1.32.154-2 0-.68-.066-1.34-.154-2h3.714c.176.64.286 1.31.286 2s-.11 1.36-.286 2H16z" fill="#fff" fill-rule="evenodd"/></svg>
